<svg width="187" height="73" viewBox="0 0 187 73" fill="none" xmlns="http://www.w3.org/2000/svg">
<path d="M10.8276 66.6004C7.03834 66.6004 4.32753 65.5219 2.69521 63.3649C1.06289 61.1496 0.246733 57.885 0.246733 53.571C0.246733 49.1987 2.08309 36.8689 5.7558 16.5815L1.12119 7.22483C7.70875 2.96915 13.7133 0.841313 19.135 0.841313C23.6238 0.841313 25.8683 3.58127 25.8683 9.06119C25.8683 10.6935 24.644 17.864 22.1956 30.5728L26.3055 27.1624C34.8169 20.0502 39.0726 13.9873 39.0726 8.97375C39.0726 7.45802 38.8394 6.08804 38.373 4.86381C42.687 2.24044 46.7678 0.928757 50.6154 0.928757C56.3285 0.928757 59.185 3.84361 59.185 9.67331C59.185 16.2026 53.3845 22.8193 41.7834 29.5235C47.205 46.896 53.0638 57.6226 59.3599 61.7034C58.0774 62.986 56.1536 64.0936 53.5885 65.0263C51.0817 66.0174 48.8373 66.5129 46.8552 66.5129C42.891 66.5129 39.7138 65.4927 37.3236 63.4523C34.9335 61.4119 32.7765 57.6518 30.8527 52.1718L25.7808 37.9182L20.3592 40.8039C19.5431 45.5843 19.135 48.6449 19.135 49.9857C19.135 55.6405 20.0094 59.8671 21.7583 62.6653C18.2605 65.2887 14.617 66.6004 10.8276 66.6004Z" fill="black"/>
<path d="M10.8276 66.6004C7.03834 66.6004 4.32753 65.5219 2.69521 63.3649C1.06289 61.1496 0.246733 57.885 0.246733 53.571C0.246733 49.1987 2.08309 36.8689 5.7558 16.5815L1.12119 7.22483C7.70875 2.96915 13.7133 0.841313 19.135 0.841313C23.6238 0.841313 25.8683 3.58127 25.8683 9.06119C25.8683 10.6935 24.644 17.864 22.1956 30.5728L26.3055 27.1624C34.8169 20.0502 39.0726 13.9873 39.0726 8.97375C39.0726 7.45802 38.8394 6.08804 38.373 4.86381C42.687 2.24044 46.7678 0.928757 50.6154 0.928757C56.3285 0.928757 59.185 3.84361 59.185 9.67331C59.185 16.2026 53.3845 22.8193 41.7834 29.5235C47.205 46.896 53.0638 57.6226 59.3599 61.7034C58.0774 62.986 56.1536 64.0936 53.5885 65.0263C51.0817 66.0174 48.8373 66.5129 46.8552 66.5129C42.891 66.5129 39.7138 65.4927 37.3236 63.4523C34.9335 61.4119 32.7765 57.6518 30.8527 52.1718L25.7808 37.9182L20.3592 40.8039C19.5431 45.5843 19.135 48.6449 19.135 49.9857C19.135 55.6405 20.0094 59.8671 21.7583 62.6653C18.2605 65.2887 14.617 66.6004 10.8276 66.6004Z" fill="#FF0000"/>
<path d="M67.9303 65.3967C66.9602 65.3967 66.2327 65.0972 65.7476 64.498C65.2626 63.9273 65.02 63.0428 65.02 61.8445C65.02 60.6746 65.4052 58.1067 66.1756 54.1407C66.9745 50.1462 67.8305 46.4085 68.7435 42.9275L66.8604 40.7876C67.6308 40.1599 68.3726 39.6748 69.0859 39.3324C69.8277 38.9615 70.4983 38.776 71.0974 38.776C71.8963 38.776 72.4813 39.0043 72.8522 39.4608C73.2231 39.8888 73.4086 40.4452 73.4086 41.13C73.4086 42.0145 73.2516 42.9846 72.9378 44.0403C72.6525 45.0674 72.2245 46.2801 71.6538 47.6781L72.0818 47.8921C72.9663 45.7807 73.8651 44.0403 74.7781 42.6707C75.7197 41.3012 76.6613 40.2883 77.6028 39.632C78.5729 38.9472 79.543 38.6048 80.5131 38.6048C81.4547 38.6048 82.1537 38.8188 82.6103 39.2468C83.0953 39.6463 83.3378 40.274 83.3378 41.13C83.3378 42.0715 82.9669 42.8276 82.2251 43.3983C81.4832 43.9689 80.5131 44.2543 79.3148 44.2543C77.8025 44.2543 76.3331 45.1102 74.9065 46.8222C73.4799 48.5341 72.3243 50.7596 71.4398 53.4987C70.5553 56.2379 70.1131 59.0626 70.1131 61.9729C70.1131 63.0286 70.2843 63.7704 70.6267 64.1984C69.7707 64.9973 68.8719 65.3967 67.9303 65.3967ZM91.6702 65.3967C90.7001 65.3967 89.9725 65.1542 89.4875 64.6692C89.0024 64.1841 88.7599 63.4137 88.7599 62.358C88.7599 61.1882 89.0309 59.1054 89.573 56.1095C90.1437 53.1136 91.0995 48.6054 92.4406 42.5851L90.5574 40.4452C91.2422 39.9031 92.0268 39.4751 92.9113 39.1612C93.8244 38.8188 94.6518 38.6476 95.3937 38.6476C96.2496 38.6476 96.8488 38.8331 97.1912 39.204C97.5621 39.5464 97.7476 40.1456 97.7476 41.0016C97.7476 41.1442 97.662 41.5722 97.4908 42.2855C97.3481 42.9988 97.1627 43.7977 96.9344 44.6822C96.0499 48.3059 95.3081 51.5871 94.7089 54.5259C94.1382 57.4647 93.8529 59.9471 93.8529 61.9729C93.8529 63.0571 94.1097 63.8132 94.6233 64.2412C93.6817 65.0116 92.6973 65.3967 91.6702 65.3967ZM95.4792 35.0098C94.5662 35.0098 93.8386 34.7958 93.2965 34.3678C92.7544 33.9113 92.4833 33.3121 92.4833 32.5703C92.4833 31.9996 92.6403 31.4718 92.9541 30.9867C93.2965 30.5017 93.753 30.1165 94.3237 29.8311C94.8943 29.5173 95.5506 29.3604 96.2924 29.3604C97.234 29.3604 97.9616 29.5886 98.4751 30.0451C99.0173 30.4731 99.2883 31.0438 99.2883 31.7571C99.2883 32.6701 98.9317 33.4405 98.2184 34.0682C97.505 34.6959 96.592 35.0098 95.4792 35.0098ZM112.607 65.3967C111.723 65.3967 111.023 65.14 110.51 64.6264C109.996 64.1128 109.74 63.157 109.74 61.7589C109.74 60.3608 109.925 58.763 110.296 56.9654C110.667 55.1679 111.209 52.8568 111.922 50.0321C112.578 47.4641 113.064 45.4241 113.377 43.9119C113.691 42.3711 113.848 41.0444 113.848 39.9316C113.848 38.9044 113.706 37.7489 113.42 36.4649L113.335 36.1225C113.82 35.6089 114.462 35.2095 115.261 34.9242C116.059 34.6103 116.844 34.4534 117.614 34.4534C118.442 34.4534 119.041 34.6388 119.412 35.0098C119.783 35.3807 119.968 35.9941 119.968 36.8501C119.968 37.5349 119.826 38.4194 119.54 39.5036C119.284 40.5878 118.856 42.1143 118.256 44.0831C117.172 47.6781 116.316 50.8167 115.689 53.4987C115.089 56.1523 114.804 58.8343 114.833 61.5449L116.202 63.856C115.689 64.3696 115.104 64.7548 114.447 65.0116C113.82 65.2684 113.206 65.3967 112.607 65.3967ZM110.424 45.581C109.711 45.581 109.197 45.4526 108.884 45.1958C108.57 44.9105 108.413 44.4825 108.413 43.9119C108.413 43.17 108.641 42.471 109.098 41.8147C109.896 42.0715 111.195 42.1999 112.992 42.1999C114.076 42.1999 115.503 42.043 117.272 41.7291C118.014 41.615 118.784 41.5152 119.583 41.4296C120.382 41.3154 121.11 41.2584 121.766 41.2584C122.508 41.2584 123.021 41.401 123.307 41.6863C123.592 41.9717 123.735 42.3997 123.735 42.9703C123.735 43.7121 123.506 44.3827 123.05 44.9818C122.622 44.8677 122.037 44.7821 121.295 44.725C120.582 44.6394 119.911 44.5966 119.284 44.5966C118.684 44.5966 118 44.6537 117.229 44.7678C116.459 44.8534 115.717 44.9533 115.004 45.0674C112.949 45.4098 111.423 45.581 110.424 45.581ZM131.857 65.3967C130.859 65.3967 130.117 65.14 129.632 64.6264C129.147 64.1128 128.904 63.3567 128.904 62.358C128.904 61.3594 129.147 59.4905 129.632 56.7514C130.117 53.9838 130.93 49.6469 132.071 43.7407C132.357 42.3141 132.642 40.8874 132.927 39.4608C133.213 38.0057 133.484 36.5648 133.74 35.1382L131.857 32.9982C132.514 32.4276 133.298 31.9853 134.211 31.6715C135.153 31.3291 136.009 31.1579 136.779 31.1579C137.578 31.1579 138.149 31.3434 138.491 31.7143C138.834 32.0567 139.005 32.6558 139.005 33.5118C139.005 34.0539 138.919 34.7672 138.748 35.6517C138.577 36.5077 138.291 37.7346 137.892 39.3324C137.122 42.4425 136.565 44.8534 136.223 46.5654L136.651 46.7794C138.22 43.9547 140.032 41.9003 142.086 40.6164C144.141 39.3039 146.209 38.6476 148.292 38.6476C150.118 38.6476 151.488 39.1184 152.401 40.06C153.314 40.973 153.77 42.3997 153.77 44.3399C153.77 45.4812 153.642 46.6652 153.385 47.8921C153.157 49.119 152.814 50.6598 152.358 52.5144C151.816 54.6828 151.416 56.4661 151.16 57.8642C150.903 59.2338 150.774 60.6033 150.774 61.9729C150.774 63.0571 150.96 63.7989 151.331 64.1984C150.446 64.9973 149.533 65.3967 148.592 65.3967C147.593 65.3967 146.865 65.14 146.409 64.6264C145.952 64.1128 145.724 63.3567 145.724 62.358C145.724 61.2738 145.838 60.0612 146.066 58.7202C146.323 57.3506 146.68 55.5816 147.136 53.4131C147.564 51.6156 147.878 50.1177 148.078 48.9193C148.306 47.6924 148.42 46.6367 148.42 45.7522C148.42 43.4411 147.55 42.2855 145.81 42.2855C144.069 42.2855 142.272 43.1415 140.417 44.8534C138.591 46.5654 137.065 48.9336 135.838 51.958C134.611 54.9539 133.997 58.2922 133.997 61.9729C133.997 63.0286 134.168 63.7704 134.511 64.1984C133.683 64.9973 132.799 65.3967 131.857 65.3967ZM162.493 72.8865C160.695 72.8865 159.354 72.5726 158.47 71.9449C157.585 71.3172 157.143 70.4612 157.143 69.377C157.143 68.9776 157.229 68.5496 157.4 68.0931C157.571 67.6651 157.771 67.2799 157.999 66.9375C158.598 67.6223 159.297 68.1787 160.096 68.6066C160.895 69.0346 162.022 69.2486 163.477 69.2486C165.76 69.2486 168.328 68.3213 171.181 66.4667C174.063 64.6406 176.559 61.6875 178.671 57.6074C180.811 53.5273 181.881 48.3487 181.881 42.0715C181.881 40.9017 181.852 40.1171 181.795 39.7176C182.451 39.3182 182.993 39.0471 183.421 38.9044C183.849 38.7332 184.306 38.6476 184.791 38.6476C186.246 38.6476 186.974 39.5036 186.974 41.2156C186.974 45.8378 185.946 50.617 183.892 55.5531C181.838 60.4892 178.942 64.6121 175.204 67.9219C171.495 71.2316 167.258 72.8865 162.493 72.8865ZM173.663 65.3967C171.266 65.3967 169.497 64.7548 168.356 63.4708C167.215 62.1869 166.487 60.6318 166.173 58.8058C165.888 56.9512 165.703 54.4688 165.617 51.3588C165.589 49.3045 165.517 47.6211 165.403 46.3086C165.289 44.9676 165.032 43.7121 164.633 42.5423C164.262 41.3725 163.677 40.4309 162.878 39.7176C163.791 39.0043 164.775 38.6476 165.831 38.6476C167.343 38.6476 168.442 39.1898 169.127 40.274C169.84 41.3297 170.268 42.6422 170.41 44.2115C170.582 45.7522 170.667 47.8636 170.667 50.5456C170.696 53.4274 170.796 55.71 170.967 57.3934C171.167 59.0768 171.68 60.5177 172.508 61.7161C173.364 62.8859 174.676 63.4708 176.445 63.4708L173.663 65.3967Z" fill="black"/>
</svg>
